<svg xmlns="http://www.w3.org/2000/svg" style="background:0 0;background-color:transparent;color-scheme:light dark" viewBox="-0.5 -0.5 1412 784"><g data-cell-id="0"><g data-cell-id="1"><g stroke="light-dark(#000,#fff)" stroke-miterlimit="10" data-cell-id="40"><path fill="none" d="M951 727h-53" pointer-events="stroke"/><path fill="light-dark(#000,#fff)" d="m891 727 7-3v7Z" pointer-events="all"/></g><g stroke="light-dark(#000,#fff)" stroke-miterlimit="10" data-cell-id="2" pointer-events="all"><path fill="light-dark(#fff,var(--ge-dark-color, #121212))" d="M155 127v-20L180 7h50l25 100v20Z"/><path fill="none" d="M255 107H155m14-55h36v10m-10 0 10-10 10 10m-60 55h100m-50-5v10m-12-10v10m-13-10v10m-12-10v10m50-10v10m12-10v10m13-10v10"/></g><g fill="light-dark(#fff,#121212)" stroke="light-dark(#000,#ededed)" stroke-miterlimit="10" data-cell-id="3" pointer-events="all"><path d="m357 49-7 8h34l-7-8"/><path d="M350 32c2-9 9-15 17-15h23v12h-7c3 6 1 13-3 18-5 5-12 7-18 5s-11-7-12-14"/></g><g stroke="light-dark(#000,#fff)" stroke-linejoin="round" stroke-miterlimit="10" data-cell-id="4" pointer-events="all"><path fill="none" d="M531 72v30m0-15h-33"/><path fill="light-dark(#fff,#121212)" d="m516 57-18 30-18-30Zm0 60-18-30-18 30Z"/></g><g stroke="light-dark(#000,#fff)" stroke-linejoin="round" stroke-miterlimit="10" data-cell-id="5" pointer-events="all"><path fill="none" d="M601 72v30m0-15h-33"/><path fill="light-dark(#fff,#121212)" d="m586 57-18 30-18-30Zm0 60-18-30-18 30Z"/></g><g stroke="light-dark(#000,#ededed)" data-cell-id="6" pointer-events="all"><ellipse cx="570" cy="185.8" fill="light-dark(#fff,#121212)" rx="20" ry="21.3"/><path fill="none" stroke-miterlimit="10" d="M550 186h7l6-11 14 21 6-10h7"/></g><path fill="light-dark(#fff,#121212)" stroke="light-dark(#000,#ededed)" stroke-miterlimit="10" d="M678 270h104c5 0 8-14 8-30 0-17-3-30-8-30H678c-5 0-8 13-8 30 0 16 3 30 8 30Zm0-60v60m104-60v60" data-cell-id="7" pointer-events="all"/><g stroke="light-dark(#000,#ededed)" stroke-miterlimit="10" data-cell-id="8" pointer-events="all"><path fill="light-dark(#fff,#121212)" d="M830 105h12v-6h9a20 20 0 0 1 38 0h9v6h12v4h-12v6h-9a20 20 0 0 1-38 0h-9v-6h-12Z"/><path fill="none" d="M842 105v4m56-4v4m-47 6c-2-5-2-11 0-16m38 0c2 5 2 11 0 16"/></g><path fill="light-dark(#fff,#121212)" stroke="light-dark(#000,#ededed)" stroke-miterlimit="10" d="m860 270 100-30v55H860Z" data-cell-id="9" pointer-events="all"/><g fill="light-dark(#fff,#121212)" stroke="light-dark(#000,#fff)" data-cell-id="10" pointer-events="all"><ellipse cx="1065" cy="187.3" rx="16" ry="14.2"/><path stroke-linejoin="round" stroke-miterlimit="10" d="m1025 165 40 22-40 23Zm80 0-40 22 40 23Z"/><ellipse cx="1065" cy="187.3" rx="16" ry="14.2"/></g><g stroke="light-dark(#000,#ededed)" data-cell-id="12" pointer-events="all"><path fill="light-dark(#fff,#121212)" d="M1320 449h16v35h-16zm64 0h16v35h-16z"/><path fill="light-dark(#fff,#121212)" stroke-miterlimit="10" d="M1400 370v79c0 4-18 8-40 8s-40-4-40-8v-79c0-5 18-8 40-8s40 3 40 8Z"/><path fill="none" stroke-miterlimit="10" d="M1320 370h80m-80 79h80"/></g><g stroke="light-dark(#000,#fff)" stroke-miterlimit="10" data-cell-id="13" pointer-events="all"><path fill="light-dark(#fff,#121212)" d="M390 255c0-9 16-15 35-15s35 6 35 15v380c0 8-16 15-35 15s-35-7-35-15Z"/><path fill="none" d="M390 285h70m-70 67h70m-70-67 70 67m-70 0 70-67m-70 84h70m-70 67h70m-70-67 70 67m-70 0 70-67m-70 84h70m-70 67h70m-70-67 70 67m-70 0 70-67m-70 84h70m-70 67h70m-70-67 70 67m-70 0 70-67"/></g><g fill="light-dark(#fff,#121212)" stroke="light-dark(#000,#fff)" data-cell-id="16" pointer-events="all"><ellipse cx="560" cy="503.9" rx="16" ry="14.8"/><path stroke-linejoin="round" stroke-miterlimit="10" d="m520 481 40 23-40 23Zm80 0-40 23 40 23Z"/><ellipse cx="560" cy="503.9" rx="16" ry="14.8"/></g><g fill="light-dark(#fff,#121212)" stroke="light-dark(#000,#ededed)" stroke-miterlimit="10" data-cell-id="18" pointer-events="all"><path d="m157 687-7 8h34l-7-8"/><path d="M150 669c2-8 9-14 17-14h23v11h-7c3 7 1 14-3 19-5 5-12 7-18 5s-11-8-12-15"/></g><g stroke="light-dark(#000,#fff)" stroke-linejoin="round" stroke-miterlimit="10" data-cell-id="19" pointer-events="all"><path fill="light-dark(#fff,#121212)" d="M950 710v35m75-35v35m-71-34 67 32"/><path fill="light-dark(#000,#fff)" d="m1017 738 5 5-8-1Z"/></g><g stroke="light-dark(#000,#ededed)" stroke-miterlimit="10" data-cell-id="20" pointer-events="all"><path fill="light-dark(#fff,#121212)" d="M270 458h30v34l15 10v55h-10v-10h-40v10h-10v-55l15-10Z"/><path fill="none" d="M270 492h30m-45 10h60m-60 45h60m-70-35h55l-30 25h55"/></g><path fill="light-dark(#fff,#121212)" stroke="light-dark(#000,#ededed)" stroke-miterlimit="10" d="M1130 357v302c0 16-18 29-40 29s-40-13-40-29V357c0-16 18-29 40-29s40 13 40 29Zm-80 0h80m-80 302h80m-80-76h80m-80-150h80m-64 0-16 30m48-30-48 90m64-90-64 120m80-120-80 150m80-120-64 120m64-60-32 60m32-30-16 30m-32-150-32 60m80 0-48 90" data-cell-id="21" pointer-events="all"/><g fill="light-dark(#fff,#121212)" stroke="light-dark(#000,#ededed)" data-cell-id="22" pointer-events="all"><path stroke-miterlimit="10" d="M1190 135h10v70h80v-70h10"/><path d="M1200 205h8v35h-8zm72 0h8v35h-8z"/></g><path fill="light-dark(#fff,#121212)" stroke="light-dark(#000,#ededed)" stroke-miterlimit="10" d="M0 312v-55h7v48h45v-48h6v48h45v-48h7v55Zm0-51 3-4m-3 11 7-7m-7 14 7-7m-7 15 7-8m-7 15 7-7m-7 14 7-7m21 22 6-7m-34 0 7-8m-7 15 7-7m0 7 7-7m0 7 7-7m0 7 7-7m6 7 7-7m0 7 7-7m0 7 10-11m-3 11 7-7m0 7 7-7m7 7 7-7m0 7 6-7m0 7 7-7m0 7 14-15m-7 15 7-7m-7-8 7-7m-7 0 7-7m-7 0 7-8m-7 0 7-7m-7 0 7-7m-7 0 4-4m-38 55 7-7m-24-4 6-7m-6 0 6-8m-6 0 6-7m-6 0 6-7m-6 0 6-8m-6 0 6-7" data-cell-id="23" pointer-events="all"/><g fill="light-dark(#fff,#121212)" stroke="light-dark(#000,#ededed)" data-cell-id="24" pointer-events="all"><path stroke-miterlimit="10" d="M0 622h10v70h80v-70h10"/><path d="M10 692h8v35h-8zm72 0h8v35h-8z"/></g><g fill="light-dark(#fff,#121212)" stroke="light-dark(#000,#ededed)" stroke-miterlimit="10" data-cell-id="25" pointer-events="all"><path d="m42 519-7 8h34l-7-8"/><path d="M35 502c2-9 9-15 17-15h23v12h-7c3 6 1 13-3 18-5 5-12 7-18 5s-11-7-12-14"/></g><g fill="light-dark(#fff,var(--ge-dark-color, #121212))" stroke="light-dark(#000,#fff)" data-cell-id="26" pointer-events="all"><path d="M560 687h70v65h-70z"/><path stroke-miterlimit="10" d="M581 687c0-7 6-12 14-12s14 5 14 12"/></g><g stroke="light-dark(#000,#fff)" data-cell-id="27" pointer-events="all"><ellipse cx="155" cy="507" fill="light-dark(#fff,#121212)" rx="14" ry="14.7"/><path fill="light-dark(#fff,#121212)" stroke-linejoin="round" stroke-miterlimit="10" d="m120 484 35 23-35 23Zm70 0-35 23 35 23Z"/><ellipse cx="155" cy="507" fill="light-dark(#000,#fff)" rx="14" ry="14.7"/></g><g stroke="light-dark(#000,#fff)" data-cell-id="28" pointer-events="all"><ellipse cx="285" cy="674.5" fill="light-dark(#fff,#121212)" rx="16" ry="14.4"/><path fill="light-dark(#fff,#121212)" stroke-linejoin="round" stroke-miterlimit="10" d="m245 652 40 23-40 22Zm80 0-40 23 40 22Z"/><ellipse cx="285" cy="674.5" fill="light-dark(#000,#fff)" rx="16" ry="14.4"/></g><g data-cell-id="29" transform="rotate(90 70 397)"><ellipse cx="70" cy="375.1" fill="light-dark(#fff,#121212)" stroke="light-dark(#000,#fff)" pointer-events="all" rx="10.5" ry="11.8"/><path fill="none" stroke="light-dark(#000,#fff)" stroke-linejoin="round" stroke-miterlimit="10" d="M70 387v24" pointer-events="all"/><text x="69.5" y="377.8" fill="light-dark(#000,#ededed)" font-family="&quot;Helvetica&quot;" font-size="8.4" font-weight="bold" text-anchor="middle">M</text><path fill="light-dark(#fff,#121212)" stroke="light-dark(#000,#fff)" stroke-linejoin="round" stroke-miterlimit="10" d="m40 390 30 21-30 20Zm60 0-30 21 30 20Z" pointer-events="all"/></g><g stroke="light-dark(#000,#fff)" stroke-miterlimit="10" data-cell-id="30"><path fill="none" d="M55 367v-47" pointer-events="stroke"/><path fill="light-dark(#000,#fff)" d="m55 313 4 7h-7Z" pointer-events="all"/></g><g stroke="light-dark(#000,#fff)" stroke-miterlimit="10" data-cell-id="33"><path fill="none" d="M55 427v52" pointer-events="stroke"/><path fill="light-dark(#000,#fff)" d="m55 486-4-7h7Z" pointer-events="all"/></g><g stroke="light-dark(#000,#fff)" stroke-miterlimit="10" data-cell-id="36"><path fill="none" d="M120 507H78" pointer-events="stroke"/><path fill="light-dark(#000,#fff)" d="m71 507 7-3v7Z" pointer-events="all"/></g><g stroke="light-dark(#000,#fff)" stroke-miterlimit="10" data-cell-id="37"><path fill="none" d="M190 507h56" pointer-events="stroke"/><path fill="light-dark(#000,#fff)" d="m253 507-7 4v-7Z" pointer-events="all"/></g><g stroke="light-dark(#000,#fff)" stroke-miterlimit="10" data-cell-id="38"><path fill="none" d="M315 507h38V357h29" pointer-events="stroke"/><path fill="light-dark(#000,#fff)" d="m389 357-7 4v-7Z" pointer-events="all"/></g><g stroke="light-dark(#000,#fff)" stroke-miterlimit="10" data-cell-id="39"><path fill="none" d="M425 650v25h-92" pointer-events="stroke"/><path fill="light-dark(#000,#fff)" d="m326 675 7-3v7Z" pointer-events="all"/></g><g stroke="light-dark(#000,#fff)" stroke-miterlimit="10" data-cell-id="43"><path fill="none" d="M150 674H98" pointer-events="stroke"/><path fill="light-dark(#000,#fff)" d="m91 674 7-3v7Z" pointer-events="all"/></g><g stroke="light-dark(#000,#fff)" stroke-miterlimit="10" data-cell-id="44"><path fill="none" d="M425 650v63h127" pointer-events="stroke"/><path fill="light-dark(#000,#fff)" d="m559 713-7 4v-7Z" pointer-events="all"/></g><g stroke="light-dark(#000,#fff)" stroke-miterlimit="10" data-cell-id="45"><path fill="none" d="M595 675V567H468" pointer-events="stroke"/><path fill="light-dark(#000,#fff)" d="m461 567 7-3v7Z" pointer-events="all"/></g><g fill="light-dark(#fff,#121212)" stroke="light-dark(#000,#fff)" data-cell-id="46" pointer-events="all"><ellipse cx="560" cy="434.4" rx="16" ry="14.8"/><path stroke-linejoin="round" stroke-miterlimit="10" d="m520 411 40 23-40 24Zm80 0-40 23 40 24Z"/><ellipse cx="560" cy="434.4" rx="16" ry="14.8"/></g><g fill="light-dark(#fff,#121212)" stroke="light-dark(#000,#fff)" data-cell-id="47" pointer-events="all"><ellipse cx="560" cy="358" rx="16" ry="14.8"/><path stroke-linejoin="round" stroke-miterlimit="10" d="m520 335 40 23-40 23Zm80 0-40 23 40 23Z"/><ellipse cx="560" cy="358" rx="16" ry="14.8"/></g><g stroke="light-dark(#000,#fff)" stroke-miterlimit="10" data-cell-id="50"><path fill="none" d="M460 504h52" pointer-events="stroke"/><path fill="light-dark(#000,#fff)" d="m519 504-7 3v-7Z" pointer-events="all"/></g><g stroke="light-dark(#000,#fff)" stroke-miterlimit="10" data-cell-id="51"><path fill="none" d="M460 434h52" pointer-events="stroke"/><path fill="light-dark(#000,#fff)" d="m519 434-7 4v-7Z" pointer-events="all"/></g><g stroke="light-dark(#000,#fff)" stroke-miterlimit="10" data-cell-id="52"><path fill="none" d="M460 358h52" pointer-events="stroke"/><path fill="light-dark(#000,#fff)" d="m519 358-7 4v-7Z" pointer-events="all"/></g><g stroke="light-dark(#000,#fff)" stroke-miterlimit="10" data-cell-id="53"><path fill="none" d="M600 504h102" pointer-events="stroke"/><path fill="light-dark(#000,#fff)" d="m709 504-7 3v-7Z" pointer-events="all"/></g><g stroke="light-dark(#000,#fff)" stroke-miterlimit="10" data-cell-id="54"><path fill="none" d="M600 434h109" pointer-events="stroke"/><path fill="light-dark(#000,#fff)" d="m716 434-7 3v-7Z" pointer-events="all"/></g><g stroke="light-dark(#000,#ededed)" data-cell-id="17" pointer-events="all"><path fill="light-dark(#fff,#121212)" stroke-miterlimit="10" d="m709 470-10 10v35c0 14 17 27 40 30l6-10Zm80 0 10 10v35c0 14-17 27-40 30l-6-10Z"/><path fill="light-dark(#fff,#121212)" stroke-miterlimit="10" d="M709 420c0-5 8-10 20-13 12-2 28-2 40 0 12 3 20 8 20 13v90c0 9-8 17-20 22-12 4-28 4-40 0-12-5-20-13-20-22Z"/><path fill="light-dark(#fff,#121212)" d="M744 371h10v19h-10z"/><path fill="none" stroke-miterlimit="10" d="M742 373h14m-14 14h14m-7 3v131"/><ellipse cx="739" cy="520.1" fill="none" rx="10" ry="3"/><ellipse cx="759" cy="520.1" fill="none" rx="10" ry="3"/></g><g fill="light-dark(#fff,#121212)" stroke="light-dark(#000,#ededed)" stroke-miterlimit="10" data-cell-id="55" pointer-events="all"><path d="m867 739-7 8h34l-7-8"/><path d="M860 722c2-9 9-15 17-15h23v12h-7c3 6 1 13-3 18-5 5-12 7-18 5s-11-7-12-14"/></g><g stroke="light-dark(#000,#fff)" stroke-miterlimit="10" data-cell-id="56"><path fill="none" d="M800 507h30v220h22" pointer-events="stroke"/><path fill="light-dark(#000,#fff)" d="m859 727-7 4v-7Z" pointer-events="all"/></g><g stroke="light-dark(#000,#fff)" stroke-miterlimit="10" data-cell-id="57"><path fill="none" d="M245 675h-52" pointer-events="stroke"/><path fill="light-dark(#000,#fff)" d="m186 675 7-4v7Z" pointer-events="all"/></g><g stroke="light-dark(#000,#fff)" stroke-miterlimit="10" data-cell-id="58"><path fill="none" d="M1025 727h65v-31" pointer-events="stroke"/><path fill="light-dark(#000,#fff)" d="m1090 689 4 7h-7Z" pointer-events="all"/></g><g stroke="light-dark(#000,#fff)" stroke-miterlimit="10" data-cell-id="59"><path fill="none" d="M1090 688v39h100V298h-100v22" pointer-events="stroke"/><path fill="light-dark(#000,#fff)" d="m1090 327-3-7h7Z" pointer-events="all"/></g><g stroke="light-dark(#000,#fff)" stroke-miterlimit="10" data-cell-id="62"><path fill="none" d="M255 37h87" pointer-events="stroke"/><path fill="light-dark(#000,#fff)" d="m349 37-7 4v-7Z" pointer-events="all"/></g><g stroke="light-dark(#000,#fff)" stroke-miterlimit="10" data-cell-id="64"><path fill="none" d="M384 37h116v12" pointer-events="stroke"/><path fill="light-dark(#000,#fff)" d="m500 56-3-7h7Z" pointer-events="all"/></g><g stroke="light-dark(#000,#fff)" stroke-miterlimit="10" data-cell-id="65"><path fill="none" d="M570 57V7H263" pointer-events="stroke"/><path fill="light-dark(#000,#fff)" d="m256 7 7-3v7Z" pointer-events="all"/></g><g stroke="light-dark(#000,#fff)" stroke-miterlimit="10" data-cell-id="66"><path fill="none" d="M570 117v42" pointer-events="stroke"/><path fill="light-dark(#000,#fff)" d="m570 166-4-7h7Z" pointer-events="all"/></g><g stroke="light-dark(#000,#fff)" stroke-miterlimit="10" data-cell-id="68"><path fill="none" d="M500 117v110h70v-12" pointer-events="stroke"/><path fill="light-dark(#000,#fff)" d="m570 208 4 7h-7Z" pointer-events="all"/></g><g stroke="light-dark(#000,#fff)" stroke-miterlimit="10" data-cell-id="70"><path fill="none" d="M420 240v-54h122" pointer-events="stroke"/><path fill="light-dark(#000,#fff)" d="m549 186-7 4v-7Z" pointer-events="all"/></g><g stroke="light-dark(#000,#fff)" stroke-miterlimit="10" data-cell-id="71"><path fill="none" d="M590 186h140v15" pointer-events="stroke"/><path fill="light-dark(#000,#fff)" d="m730 208-3-7h7Z" pointer-events="all"/></g><g stroke="light-dark(#000,#fff)" stroke-miterlimit="10" data-cell-id="72"><path fill="none" d="M750 207V107h72" pointer-events="stroke"/><path fill="light-dark(#000,#fff)" d="m829 107-7 4v-7Z" pointer-events="all"/></g><g stroke="light-dark(#000,#fff)" stroke-miterlimit="10" data-cell-id="73"><path fill="none" d="M910 107h62" pointer-events="stroke"/><path fill="light-dark(#000,#fff)" d="m979 107-7 3v-7Z" pointer-events="all"/></g><g stroke="light-dark(#000,#fff)" stroke-miterlimit="10" data-cell-id="74"><path fill="none" d="M1025 187h-25v125H468" pointer-events="stroke"/><path fill="light-dark(#000,#fff)" d="m461 312 7-3v7Z" pointer-events="all"/></g><g stroke="light-dark(#000,#fff)" stroke-miterlimit="10" data-cell-id="75"><path fill="none" d="M730 270v17h122" pointer-events="stroke"/><path fill="light-dark(#000,#fff)" d="m859 287-7 4v-7Z" pointer-events="all"/></g><g stroke="light-dark(#000,#fff)" stroke-miterlimit="10" data-cell-id="76"><path fill="none" d="M960 267h32" pointer-events="stroke"/><path fill="light-dark(#000,#fff)" d="m999 267-7 4v-7Z" pointer-events="all"/></g><g stroke="light-dark(#000,#fff)" stroke-miterlimit="10" data-cell-id="77"><path fill="none" d="M1090 328v-31h270v57" pointer-events="stroke"/><path fill="light-dark(#000,#fff)" d="m1360 361-3-7h7Z" pointer-events="all"/></g><g stroke="light-dark(#000,#fff)" stroke-miterlimit="10" data-cell-id="78"><path fill="none" d="M1105 187h87" pointer-events="stroke"/><path fill="light-dark(#000,#fff)" d="m1199 187-7 4v-7Z" pointer-events="all"/></g><g data-cell-id="79"><path fill="none" d="M155 135h100v20H155z" pointer-events="all"/><text x="204.5" y="147.3" fill="light-dark(#000,#fff)" font-family="&quot;Helvetica&quot;" font-size="12" text-anchor="middle">Cooling Tower</text></g><g data-cell-id="80"><path fill="none" d="M320 67h100v20H320z" pointer-events="all"/><text x="369.5" y="79.5" fill="light-dark(#000,#fff)" font-family="&quot;Helvetica&quot;" font-size="12" text-anchor="middle">Cooling Pump</text></g><g data-cell-id="81"><path fill="none" d="M520 230h100v20H520z" pointer-events="all"/><text x="569.5" y="242" fill="light-dark(#000,#fff)" font-family="&quot;Helvetica&quot;" font-size="12" text-anchor="middle">Heat Exchanger</text></g><g data-cell-id="82"><path fill="none" d="M680 230h100v20H680z" pointer-events="all"/><g fill="light-dark(#000,#fff)" font-family="&quot;Helvetica&quot;" font-size="12" text-anchor="middle"><text x="729.5" y="242">Cooled Fluid</text><text x="729.5" y="256">Tank</text></g></g><g data-cell-id="83"><path fill="none" d="M400 77h100v20H400z" pointer-events="all"/><g fill="light-dark(#000,#fff)" font-family="&quot;Helvetica&quot;" font-size="12" text-anchor="middle"><text x="449.5" y="89.5">Cooling Shutoff </text><text x="449.5" y="103.5">Valve 1</text></g></g><g data-cell-id="84"><path fill="none" d="M610 77h100v20H610z" pointer-events="all"/><g fill="light-dark(#000,#fff)" font-family="&quot;Helvetica&quot;" font-size="12" text-anchor="middle"><text x="659.5" y="89.5">Cooling Shutoff </text><text x="659.5" y="103.5">Valve 2</text></g></g><g data-cell-id="85"><path fill="none" d="M820 67h100v20H820z" pointer-events="all"/><text x="869.5" y="79.5" fill="light-dark(#000,#fff)" font-family="&quot;Helvetica&quot;" font-size="12" text-anchor="middle">Vacuum Pump</text></g><g data-cell-id="86"><path fill="none" d="M1190 247h100v20h-100z" pointer-events="all"/><text x="1239.5" y="259.5" fill="light-dark(#000,#fff)" font-family="&quot;Helvetica&quot;" font-size="12" text-anchor="middle">Water Tank</text></g><g data-cell-id="87"><path fill="none" d="M1310 488h100v20h-100z" pointer-events="all"/><text x="1359.5" y="500.5" fill="light-dark(#000,#fff)" font-family="&quot;Helvetica&quot;" font-size="12" text-anchor="middle">Oil</text></g><g data-cell-id="88"><path fill="none" d="M965 488h100v20H965z" pointer-events="all"/><text x="1014.5" y="500.5" fill="light-dark(#000,#fff)" font-family="&quot;Helvetica&quot;" font-size="12" text-anchor="middle">Reactor</text></g><g data-cell-id="89"><path fill="none" d="M1015 135h100v20h-100z" pointer-events="all"/><g fill="light-dark(#000,#fff)" font-family="&quot;Helvetica&quot;" font-size="12" text-anchor="middle"><text x="1064.5" y="147.3">Water Tank</text><text x="1064.5" y="161.3">Valve</text></g></g><g data-cell-id="90"><path fill="none" d="M850 230h100v20H850z" pointer-events="all"/><text x="899.5" y="242.3" fill="light-dark(#000,#fff)" font-family="&quot;Helvetica&quot;" font-size="12" text-anchor="middle">Water Pump</text></g><g data-cell-id="91"><path fill="none" d="M235 700h100v20H235z" pointer-events="all"/><text x="284.5" y="712" fill="light-dark(#000,#fff)" font-family="&quot;Helvetica&quot;" font-size="12" text-anchor="middle">Mud Valve</text></g><g data-cell-id="92"><path fill="none" d="M120 697h100v20H120z" pointer-events="all"/><text x="169.5" y="709.5" fill="light-dark(#000,#fff)" font-family="&quot;Helvetica&quot;" font-size="12" text-anchor="middle">Mud Pump</text></g><g data-cell-id="93"><path fill="none" d="M5 732h100v20H5z" pointer-events="all"/><text x="54.5" y="744.5" fill="light-dark(#000,#fff)" font-family="&quot;Helvetica&quot;" font-size="12" text-anchor="middle">Mud Tank</text></g><g data-cell-id="94"><path fill="none" d="M245 557h100v20H245z" pointer-events="all"/><text x="294.5" y="569" fill="light-dark(#000,#fff)" font-family="&quot;Helvetica&quot;" font-size="12" text-anchor="middle">Crude Oil Furnace</text></g><g data-cell-id="95"><path fill="none" d="M5 227h100v20H5z" pointer-events="all"/><text x="54.5" y="239.5" fill="light-dark(#000,#fff)" font-family="&quot;Helvetica&quot;" font-size="12" text-anchor="middle">Crude Oil Tank</text></g><g data-cell-id="96"><path fill="none" d="M105 391h100v20H105z" pointer-events="all"/><g fill="light-dark(#000,#fff)" font-family="&quot;Helvetica&quot;" font-size="12" text-anchor="middle"><text x="154.5" y="403.8">Crude Oil Tank</text><text x="154.5" y="417.8">Remote Valve</text></g></g><g data-cell-id="97"><path fill="none" d="M105 535h100v20H105z" pointer-events="all"/><g fill="light-dark(#000,#fff)" font-family="&quot;Helvetica&quot;" font-size="12" text-anchor="middle"><text x="154.5" y="547">Crude Oil To </text><text x="154.5" y="561">Furnace Valve</text></g></g><g data-cell-id="98"><path fill="none" d="M5 527h100v20H5z" pointer-events="all"/><g fill="light-dark(#000,#fff)" font-family="&quot;Helvetica&quot;" font-size="12" text-anchor="middle"><text x="54.5" y="539.5">Crude Oil Tank</text><text x="54.5" y="553.5">To Furnace Pump</text></g></g><g data-cell-id="99"><path fill="none" d="M545 752h100v20H545z" pointer-events="all"/><text x="594.5" y="764.5" fill="light-dark(#000,#fff)" font-family="&quot;Helvetica&quot;" font-size="12" text-anchor="middle">Boiler</text></g><g data-cell-id="100"><path fill="none" d="M310 292h100v20H310z" pointer-events="all"/><g fill="light-dark(#000,#fff)" font-family="&quot;Helvetica&quot;" font-size="12" text-anchor="middle"><text x="359.5" y="304.5">Separating</text><text x="359.5" y="318.5">Column</text></g></g><g data-cell-id="101"><path fill="none" d="M510 315h100v20H510z" pointer-events="all"/><g fill="light-dark(#000,#fff)" font-family="&quot;Helvetica&quot;" font-size="12" text-anchor="middle"><text x="559.5" y="327.4">Depressurizing</text><text x="559.5" y="341.4">Valve</text></g></g><g data-cell-id="102"><path fill="none" d="M510 387h100v24H510z" pointer-events="all"/><g fill="light-dark(#000,#fff)" font-family="&quot;Helvetica&quot;" font-size="12" text-anchor="middle"><text x="559.5" y="399.5">Separated Oil</text><text x="559.5" y="413.5">Valve 1</text></g></g><g data-cell-id="103"><path fill="none" d="M510 460h100v24H510z" pointer-events="all"/><g fill="light-dark(#000,#fff)" font-family="&quot;Helvetica&quot;" font-size="12" text-anchor="middle"><text x="559.5" y="472.3">Separated Oil</text><text x="559.5" y="486.3">Valve 2</text></g></g><g data-cell-id="104"><path fill="none" d="M699 547h100v20H699z" pointer-events="all"/><g fill="light-dark(#000,#fff)" font-family="&quot;Helvetica&quot;" font-size="12" text-anchor="middle"><text x="748.5" y="559.5">Oil</text><text x="748.5" y="573.5">Mixing Tank</text></g></g><g data-cell-id="105"><path fill="none" d="M830 752h100v20H830z" pointer-events="all"/><g fill="light-dark(#000,#fff)" font-family="&quot;Helvetica&quot;" font-size="12" text-anchor="middle"><text x="879.5" y="764.5">Crude Oil To</text><text x="879.5" y="778.5">Reactor Pump</text></g></g><g data-cell-id="106"><path fill="none" d="M938 752h100v20H938z" pointer-events="all"/><g fill="light-dark(#000,#fff)" font-family="&quot;Helvetica&quot;" font-size="12" text-anchor="middle"><text x="987" y="764.5">Oil To </text><text x="987" y="778.5">Reactor Valve</text></g></g></g></g></svg>