<svg xmlns="http://www.w3.org/2000/svg" width="1412" height="784" style="background:0 0;background-color:transparent;color-scheme:light dark" viewBox="-0.5 -0.5 1412 784"><g data-cell-id="0"><g data-cell-id="1"><g stroke="#000" stroke-miterlimit="10" data-cell-id="40"><path fill="none" d="M950.6 727h-52.48" pointer-events="stroke" style="stroke:light-dark(#000,#fff)"/><path d="m891.12 727 7-3.5v7Z" pointer-events="all" style="fill:light-dark(#000,#fff);stroke:light-dark(#000,#fff)"/></g><g stroke="#000" stroke-miterlimit="10" data-cell-id="2" pointer-events="all"><path fill="#fff" d="M155 127v-20L180 7h50l25 100v20Z" style="fill:light-dark(#fff,var(--ge-dark-color, #121212));stroke:light-dark(#000,#fff)"/><path fill="none" d="M255 107H155m14-55h36v10m-10 0 10-10 10 10m-60 55h100m-50-5v10m-12.5-10v10M180 112v10m-12.5-10v10m50-10v10m12.5-10v10m12.5-10v10" style="stroke:light-dark(#000,#fff)"/></g><g fill="#fff" stroke="#000" stroke-miterlimit="10" data-cell-id="3" pointer-events="all"><path d="M356.86 49.24 350 57h34.29l-6.86-7.76" style="fill:light-dark(#fff,#121212);stroke:light-dark(#000,#ededed)"/><path d="M350.34 31.93c1.39-8.58 8.48-14.88 16.8-14.93H390v11.94h-6.6c2.18 6.39.72 13.51-3.77 18.41-4.49 4.89-11.23 6.72-17.43 4.72s-10.79-7.49-11.86-14.17" style="fill:light-dark(#fff,#121212);stroke:light-dark(#000,#ededed)"/></g><g stroke="#000" stroke-linejoin="round" stroke-miterlimit="10" data-cell-id="4" pointer-events="all"><path fill="none" d="M495 66h30m-15 0v33" style="stroke:light-dark(#000,#fff)" transform="rotate(90 510 87)"/><path fill="#fff" d="m480 81 30 18-30 18Zm60 0-30 18 30 18Z" style="fill:light-dark(#fff,#121212);stroke:light-dark(#000,#fff)" transform="rotate(90 510 87)"/></g><g stroke="#000" stroke-linejoin="round" stroke-miterlimit="10" data-cell-id="5" pointer-events="all"><path fill="none" d="M565 66h30m-15 0v33" style="stroke:light-dark(#000,#fff)" transform="rotate(90 580 87)"/><path fill="#fff" d="m550 81 30 18-30 18Zm60 0-30 18 30 18Z" style="fill:light-dark(#fff,#121212);stroke:light-dark(#000,#fff)" transform="rotate(90 580 87)"/></g><g stroke="#000" data-cell-id="6" pointer-events="all"><ellipse cx="570" cy="185.75" fill="#fff" rx="20" ry="21.25" style="fill:light-dark(#fff,#121212);stroke:light-dark(#000,#ededed)"/><path fill="none" stroke-miterlimit="10" d="M550 185.75h6.67l6.66-10.63 13.34 21.26 6.66-10.63H590" style="stroke:light-dark(#000,#ededed)"/></g><path fill="#fff" stroke="#000" stroke-miterlimit="10" d="M677.56 269.5h104.88c4.17 0 7.56-13.43 7.56-30s-3.39-30-7.56-30H677.56c-4.17 0-7.56 13.43-7.56 30s3.39 30 7.56 30Zm0-60v60m104.88-60v60" data-cell-id="7" pointer-events="all" style="fill:light-dark(#fff,#121212);stroke:light-dark(#000,#ededed)"/><g stroke="#000" stroke-miterlimit="10" data-cell-id="8" pointer-events="all"><path fill="#fff" d="M830 105.4h11.72v-6.41h9.77C854.71 91.71 861.98 87 870 87s15.29 4.71 18.51 11.99h9.77v6.41H910v3.2h-11.72v6.41h-9.77C885.29 122.29 878.02 127 870 127s-15.29-4.71-18.51-11.99h-9.77v-6.41H830Z" style="fill:light-dark(#fff,#121212);stroke:light-dark(#000,#ededed)"/><path fill="none" d="M841.72 105.4v3.2m56.56-3.2v3.2m-46.79 6.41a19.93 19.93 0 0 1 0-16.02m37.02 0a19.93 19.93 0 0 1 0 16.02" style="stroke:light-dark(#000,#ededed)"/></g><path fill="#fff" stroke="#000" stroke-miterlimit="10" d="m860 269.5 100-30v55H860Z" data-cell-id="9" pointer-events="all" style="fill:light-dark(#fff,#121212);stroke:light-dark(#000,#ededed)"/><g fill="#fff" stroke="#000" data-cell-id="10" pointer-events="all"><ellipse cx="1065" cy="187.25" rx="16" ry="14.24" style="fill:light-dark(#fff,#121212);stroke:light-dark(#000,#fff)"/><path stroke-linejoin="round" stroke-miterlimit="10" d="m1025 165 40 22.25-40 22.25Zm80 0-40 22.25 40 22.25Z" style="fill:light-dark(#fff,#121212);stroke:light-dark(#000,#fff)"/><ellipse cx="1065" cy="187.25" rx="16" ry="14.24" style="fill:light-dark(#fff,#121212);stroke:light-dark(#000,#fff)"/></g><g stroke="#000" data-cell-id="12" pointer-events="all"><path fill="#fff" d="M1320 449.2h16V484h-16zM1384 449.2h16V484h-16z" style="fill:light-dark(#fff,#121212);stroke:light-dark(#000,#ededed)"/><path fill="#fff" stroke-miterlimit="10" d="M1400 369.65v79.55c0 4.22-17.91 7.65-40 7.65s-40-3.43-40-7.65v-79.55c0-4.23 17.91-7.65 40-7.65s40 3.42 40 7.65Z" style="fill:light-dark(#fff,#121212);stroke:light-dark(#000,#ededed)"/><path fill="none" stroke-miterlimit="10" d="M1320 369.65h80m-80 79.55h80" style="stroke:light-dark(#000,#ededed)"/></g><g stroke="#000" stroke-miterlimit="10" data-cell-id="13" pointer-events="all"><path fill="#fff" d="M390 254.5c0-8.28 15.67-15 35-15s35 6.72 35 15v380c0 8.28-15.67 15-35 15s-35-6.72-35-15Z" style="fill:light-dark(#fff,#121212);stroke:light-dark(#000,#fff)"/><path fill="none" d="M390 284.9h70m-70 67.2h70m-70-67.2 70 67.2m-70 0 70-67.2m-70 84h70m-70 67.2h70m-70-67.2 70 67.2m-70 0 70-67.2m-70 84h70m-70 67.2h70m-70-67.2 70 67.2m-70 0 70-67.2m-70 84h70m-70 67.2h70m-70-67.2 70 67.2m-70 0 70-67.2" style="stroke:light-dark(#000,#fff)"/></g><g fill="#fff" stroke="#000" data-cell-id="16" pointer-events="all"><ellipse cx="560" cy="503.88" rx="16" ry="14.8" style="fill:light-dark(#fff,#121212);stroke:light-dark(#000,#fff)"/><path stroke-linejoin="round" stroke-miterlimit="10" d="m520 480.75 40 23.13L520 527Zm80 0-40 23.13L600 527Z" style="fill:light-dark(#fff,#121212);stroke:light-dark(#000,#fff)"/><ellipse cx="560" cy="503.88" rx="16" ry="14.8" style="fill:light-dark(#fff,#121212);stroke:light-dark(#000,#fff)"/></g><g fill="#fff" stroke="#000" stroke-miterlimit="10" data-cell-id="18" pointer-events="all"><path d="M156.86 686.74 150 694.5h34.29l-6.86-7.76" style="fill:light-dark(#fff,#121212);stroke:light-dark(#000,#ededed)"/><path d="M150.34 669.43c1.39-8.58 8.48-14.88 16.8-14.93H190v11.94h-6.6c2.18 6.39.72 13.51-3.77 18.41-4.49 4.89-11.23 6.72-17.43 4.72s-10.79-7.49-11.86-14.17" style="fill:light-dark(#fff,#121212);stroke:light-dark(#000,#ededed)"/></g><g stroke="#000" stroke-linejoin="round" stroke-miterlimit="10" data-cell-id="19" pointer-events="all"><path fill="#fff" d="M950 709.5v35m75-35v35m-71.25-33.25 67.5 31.5" style="fill:light-dark(#fff,#121212);stroke:light-dark(#000,#fff)"/><path d="m1016.94 738.03 4.83 4.9-8.02-.95Z" style="fill:light-dark(#000,#fff);stroke:light-dark(#000,#fff)"/></g><g stroke="#000" stroke-miterlimit="10" data-cell-id="20" pointer-events="all"><path fill="#fff" d="M270 457.5h30V492l15 10v54.5h-10V547h-40v9.5h-10V502l15-10Z" style="fill:light-dark(#fff,#121212);stroke:light-dark(#000,#ededed)"/><path fill="none" d="M270 492h30m-45 10h60m-60 45h60m-70-35h55l-30 25h55" style="stroke:light-dark(#000,#ededed)"/></g><path fill="#fff" stroke="#000" stroke-miterlimit="10" d="M1130 357.02v301.96c0 16.03-17.91 29.03-40 29.03s-40-13-40-29.03V357.02c0-16.03 17.91-29.03 40-29.03s40 13 40 29.03Zm-80 0h80m-80 301.96h80m-80-75.49h80m-80-150.98h80m-64 0-16 30.2m48-30.2-48 90.59m64-90.59-64 120.78m80-120.78-80 150.98m80-120.78-64 120.78m64-60.39-32 60.39m32-30.2-16 30.2m-32-150.98-32 60.39m80 0-48 90.59" data-cell-id="21" pointer-events="all" style="fill:light-dark(#fff,#121212);stroke:light-dark(#000,#ededed)"/><g fill="#fff" stroke="#000" data-cell-id="22" pointer-events="all"><path stroke-miterlimit="10" d="M1190 134.75h10v70h80v-70h10" style="fill:light-dark(#fff,#121212);stroke:light-dark(#000,#ededed)"/><path d="M1200 204.75h8v35h-8zM1272 204.75h8v35h-8z" style="fill:light-dark(#fff,#121212);stroke:light-dark(#000,#ededed)"/></g><path fill="#fff" stroke="#000" stroke-miterlimit="10" d="M0 312v-55h6.88v47.67h44.68V257h6.88v47.67h44.69V257H110v55Zm0-51.33L3.44 257M0 268l6.88-7.33M0 275.33 6.88 268M0 282.67l6.88-7.34M0 290l6.88-7.33M0 297.33 6.88 290m20.62 22 6.88-7.33m-34.38 0 6.88-7.34M0 312l6.88-7.33m0 7.33 6.87-7.33m0 7.33 6.88-7.33m0 7.33 6.87-7.33m6.88 7.33 6.87-7.33m0 7.33 6.88-7.33m0 7.33 10.31-11M55 312l6.88-7.33m0 7.33 6.87-7.33m6.88 7.33 6.87-7.33m0 7.33 6.88-7.33m0 7.33 6.87-7.33m0 7.33L110 297.33M103.13 312l6.87-7.33m-6.87-7.34L110 290m-6.87 0 6.87-7.33m-6.87 0 6.87-7.34m-6.87 0L110 268m-6.87 0 6.87-7.33m-6.87 0 3.43-3.67m-37.81 55 6.88-7.33M51.56 301l6.88-7.33m-6.88 0 6.88-7.34m-6.88 0 6.88-7.33m-6.88 0 6.88-7.33m-6.88 0 6.88-7.34m-6.88 0 6.88-7.33" data-cell-id="23" pointer-events="all" style="fill:light-dark(#fff,#121212);stroke:light-dark(#000,#ededed)"/><g fill="#fff" stroke="#000" data-cell-id="24" pointer-events="all"><path stroke-miterlimit="10" d="M0 622h10v70h80v-70h10" style="fill:light-dark(#fff,#121212);stroke:light-dark(#000,#ededed)"/><path d="M10 692h8v35h-8zM82 692h8v35h-8z" style="fill:light-dark(#fff,#121212);stroke:light-dark(#000,#ededed)"/></g><g fill="#fff" stroke="#000" stroke-miterlimit="10" data-cell-id="25" pointer-events="all"><path d="M41.86 519.24 35 527h34.29l-6.86-7.76" style="fill:light-dark(#fff,#121212);stroke:light-dark(#000,#ededed)"/><path d="M35.34 501.93c1.39-8.58 8.48-14.88 16.8-14.93H75v11.94h-6.6c2.18 6.39.72 13.51-3.77 18.41-4.49 4.89-11.23 6.72-17.43 4.72s-10.79-7.49-11.86-14.17" style="fill:light-dark(#fff,#121212);stroke:light-dark(#000,#ededed)"/></g><g fill="#fff" stroke="#000" data-cell-id="26" pointer-events="all"><path d="M560 687.42h70V752h-70z" style="fill:light-dark(#fff,var(--ge-dark-color, #121212));stroke:light-dark(#000,#fff)"/><path stroke-miterlimit="10" d="M581 687.42c0-7.14 6.27-12.92 14-12.92s14 5.78 14 12.92" style="fill:light-dark(#fff,var(--ge-dark-color, #121212));stroke:light-dark(#000,#fff)"/></g><g stroke="#000" data-cell-id="27" pointer-events="all"><ellipse cx="155" cy="507" fill="#fff" rx="14" ry="14.72" style="fill:light-dark(#fff,#121212);stroke:light-dark(#000,#fff)"/><path fill="#fff" stroke-linejoin="round" stroke-miterlimit="10" d="m120 484 35 23-35 23Zm70 0-35 23 35 23Z" style="fill:light-dark(#fff,#121212);stroke:light-dark(#000,#fff)"/><ellipse cx="155" cy="507" rx="14" ry="14.72" style="fill:light-dark(#000,#fff);stroke:light-dark(#000,#fff)"/></g><g stroke="#000" data-cell-id="28" pointer-events="all"><ellipse cx="285" cy="674.5" fill="#fff" rx="16" ry="14.4" style="fill:light-dark(#fff,#121212);stroke:light-dark(#000,#fff)"/><path fill="#fff" stroke-linejoin="round" stroke-miterlimit="10" d="m245 652 40 22.5-40 22.5Zm80 0-40 22.5 40 22.5Z" style="fill:light-dark(#fff,#121212);stroke:light-dark(#000,#fff)"/><ellipse cx="285" cy="674.5" rx="16" ry="14.4" style="fill:light-dark(#000,#fff);stroke:light-dark(#000,#fff)"/></g><g data-cell-id="29" transform="rotate(90 70 397)"><ellipse cx="70" cy="375.06" fill="#fff" stroke="#000" pointer-events="all" rx="10.5" ry="11.813" style="fill:light-dark(#fff,#121212);stroke:light-dark(#000,#fff)"/><path fill="none" stroke="#000" stroke-linejoin="round" stroke-miterlimit="10" d="M70 386.88v23.62" pointer-events="all" style="stroke:light-dark(#000,#fff)"/><text x="69.5" y="377.76" font-family="&quot;Helvetica&quot;" font-size="8.4" font-weight="bold" style="fill:light-dark(#000,#ededed)" text-anchor="middle">M</text><path fill="#fff" stroke="#000" stroke-linejoin="round" stroke-miterlimit="10" d="m40 390.25 30 20.25-30 20.25Zm60 0L70 410.5l30 20.25Z" pointer-events="all" style="fill:light-dark(#fff,#121212);stroke:light-dark(#000,#fff)"/></g><g stroke="#000" stroke-miterlimit="10" data-cell-id="30"><path fill="none" d="M55 367v-46.88" pointer-events="stroke" style="stroke:light-dark(#000,#fff)"/><path d="m55 313.12 3.5 7h-7Z" pointer-events="all" style="fill:light-dark(#000,#fff);stroke:light-dark(#000,#fff)"/></g><g stroke="#000" stroke-miterlimit="10" data-cell-id="33"><path fill="none" d="M54.65 427v51.88" pointer-events="stroke" style="stroke:light-dark(#000,#fff)"/><path d="m54.65 485.88-3.5-7h7Z" pointer-events="all" style="fill:light-dark(#000,#fff);stroke:light-dark(#000,#fff)"/></g><g stroke="#000" stroke-miterlimit="10" data-cell-id="36"><path fill="none" d="M120 507H77.52" pointer-events="stroke" style="stroke:light-dark(#000,#fff)"/><path d="m70.52 507 7-3.5v7Z" pointer-events="all" style="fill:light-dark(#000,#fff);stroke:light-dark(#000,#fff)"/></g><g stroke="#000" stroke-miterlimit="10" data-cell-id="37"><path fill="none" d="M190 507h56.48" pointer-events="stroke" style="stroke:light-dark(#000,#fff)"/><path d="m253.48 507-7 3.5v-7Z" pointer-events="all" style="fill:light-dark(#000,#fff);stroke:light-dark(#000,#fff)"/></g><g stroke="#000" stroke-miterlimit="10" data-cell-id="38"><path fill="none" d="M315.4 507H353V357h28.88" pointer-events="stroke" style="stroke:light-dark(#000,#fff)"/><path d="m388.88 357-7 3.5v-7Z" pointer-events="all" style="fill:light-dark(#000,#fff);stroke:light-dark(#000,#fff)"/></g><g stroke="#000" stroke-miterlimit="10" data-cell-id="39"><path fill="none" d="M425 649.5V675h-91.88" pointer-events="stroke" style="stroke:light-dark(#000,#fff)"/><path d="m326.12 675 7-3.5v7Z" pointer-events="all" style="fill:light-dark(#000,#fff);stroke:light-dark(#000,#fff)"/></g><g stroke="#000" stroke-miterlimit="10" data-cell-id="43"><path fill="none" d="M150.3 674.15H97.82" pointer-events="stroke" style="stroke:light-dark(#000,#fff)"/><path d="m90.82 674.15 7-3.5v7Z" pointer-events="all" style="fill:light-dark(#000,#fff);stroke:light-dark(#000,#fff)"/></g><g stroke="#000" stroke-miterlimit="10" data-cell-id="44"><path fill="none" d="M425 649.5v63.75h126.88" pointer-events="stroke" style="stroke:light-dark(#000,#fff)"/><path d="m558.88 713.25-7 3.5v-7Z" pointer-events="all" style="fill:light-dark(#000,#fff);stroke:light-dark(#000,#fff)"/></g><g stroke="#000" stroke-miterlimit="10" data-cell-id="45"><path fill="none" d="M595 674.5V567H468.12" pointer-events="stroke" style="stroke:light-dark(#000,#fff)"/><path d="m461.12 567 7-3.5v7Z" pointer-events="all" style="fill:light-dark(#000,#fff);stroke:light-dark(#000,#fff)"/></g><g fill="#fff" stroke="#000" data-cell-id="46" pointer-events="all"><ellipse cx="560" cy="434.38" rx="16" ry="14.8" style="fill:light-dark(#fff,#121212);stroke:light-dark(#000,#fff)"/><path stroke-linejoin="round" stroke-miterlimit="10" d="m520 411.25 40 23.13-40 23.12Zm80 0-40 23.13 40 23.12Z" style="fill:light-dark(#fff,#121212);stroke:light-dark(#000,#fff)"/><ellipse cx="560" cy="434.38" rx="16" ry="14.8" style="fill:light-dark(#fff,#121212);stroke:light-dark(#000,#fff)"/></g><g fill="#fff" stroke="#000" data-cell-id="47" pointer-events="all"><ellipse cx="560" cy="358" rx="16" ry="14.8" style="fill:light-dark(#fff,#121212);stroke:light-dark(#000,#fff)"/><path stroke-linejoin="round" stroke-miterlimit="10" d="M520 334.88 560 358l-40 23.13Zm80 0L560 358l40 23.13Z" style="fill:light-dark(#fff,#121212);stroke:light-dark(#000,#fff)"/><ellipse cx="560" cy="358" rx="16" ry="14.8" style="fill:light-dark(#fff,#121212);stroke:light-dark(#000,#fff)"/></g><g stroke="#000" stroke-miterlimit="10" data-cell-id="50"><path fill="none" d="m460 503.53 51.88.18" pointer-events="stroke" style="stroke:light-dark(#000,#fff)"/><path d="m518.88 503.73-7.01 3.48.02-7Z" pointer-events="all" style="fill:light-dark(#000,#fff);stroke:light-dark(#000,#fff)"/></g><g stroke="#000" stroke-miterlimit="10" data-cell-id="51"><path fill="none" d="m460 434.03 51.88.18" pointer-events="stroke" style="stroke:light-dark(#000,#fff)"/><path d="m518.88 434.23-7.01 3.48.02-7Z" pointer-events="all" style="fill:light-dark(#000,#fff);stroke:light-dark(#000,#fff)"/></g><g stroke="#000" stroke-miterlimit="10" data-cell-id="52"><path fill="none" d="M460 358h51.88" pointer-events="stroke" style="stroke:light-dark(#000,#fff)"/><path d="m518.88 358-7 3.5v-7Z" pointer-events="all" style="fill:light-dark(#000,#fff);stroke:light-dark(#000,#fff)"/></g><g stroke="#000" stroke-miterlimit="10" data-cell-id="53"><path fill="none" d="M600 503.53h101.88" pointer-events="stroke" style="stroke:light-dark(#000,#fff)"/><path d="m708.88 503.53-7 3.5v-7Z" pointer-events="all" style="fill:light-dark(#000,#fff);stroke:light-dark(#000,#fff)"/></g><g stroke="#000" stroke-miterlimit="10" data-cell-id="54"><path fill="none" d="M600 433.94h108.83" pointer-events="stroke" style="stroke:light-dark(#000,#fff)"/><path d="m715.83 433.94-7 3.5v-7Z" pointer-events="all" style="fill:light-dark(#000,#fff);stroke:light-dark(#000,#fff)"/></g><g stroke="#000" data-cell-id="17" pointer-events="all"><path fill="#fff" stroke-miterlimit="10" d="m709.06 470.21-9.98 9.97v34.9c-.08 14.26 16.63 26.57 39.93 29.42l5.99-9.47Zm79.87 0 9.98 9.97v34.9c.08 14.26-16.63 26.57-39.93 29.42l-5.99-9.47Z" style="fill:light-dark(#fff,#121212);stroke:light-dark(#000,#ededed)"/><path fill="#fff" stroke-miterlimit="10" d="M709.06 420.36c0-5.35 7.61-10.28 19.97-12.96 12.35-2.67 27.58-2.67 39.93 0 12.36 2.68 19.97 7.61 19.97 12.96v89.74c0 8.9-7.61 17.13-19.97 21.59-12.35 4.45-27.58 4.45-39.93 0-12.36-4.46-19.97-12.69-19.97-21.59Z" style="fill:light-dark(#fff,#121212);stroke:light-dark(#000,#ededed)"/><path fill="#fff" d="M744 370.5h9.98v19.94H744z" style="fill:light-dark(#fff,#121212);stroke:light-dark(#000,#ededed)"/><path fill="none" stroke-miterlimit="10" d="M742.01 373.49h13.97m-13.97 13.96h13.97m-6.98 2.99v130.13" style="stroke:light-dark(#000,#ededed)"/><ellipse cx="739.01" cy="520.07" fill="none" rx="9.983" ry="2.991" style="stroke:light-dark(#000,#ededed)"/><ellipse cx="758.98" cy="520.07" fill="none" rx="9.983" ry="2.991" style="stroke:light-dark(#000,#ededed)"/></g><g fill="#fff" stroke="#000" stroke-miterlimit="10" data-cell-id="55" pointer-events="all"><path d="M866.86 739.24 860 747h34.29l-6.86-7.76" style="fill:light-dark(#fff,#121212);stroke:light-dark(#000,#ededed)"/><path d="M860.34 721.93c1.39-8.58 8.48-14.88 16.8-14.93H900v11.94h-6.6c2.18 6.39.72 13.51-3.77 18.41-4.49 4.89-11.23 6.72-17.43 4.72s-10.79-7.49-11.86-14.17" style="fill:light-dark(#fff,#121212);stroke:light-dark(#000,#ededed)"/></g><g stroke="#000" stroke-miterlimit="10" data-cell-id="56"><path fill="none" d="M800 507h30v220h21.88" pointer-events="stroke" style="stroke:light-dark(#000,#fff)"/><path d="m858.88 727-7 3.5v-7Z" pointer-events="all" style="fill:light-dark(#000,#fff);stroke:light-dark(#000,#fff)"/></g><g stroke="#000" stroke-miterlimit="10" data-cell-id="57"><path fill="none" d="M245 674.5h-52.48" pointer-events="stroke" style="stroke:light-dark(#000,#fff)"/><path d="m185.52 674.5 7-3.5v7Z" pointer-events="all" style="fill:light-dark(#000,#fff);stroke:light-dark(#000,#fff)"/></g><g stroke="#000" stroke-miterlimit="10" data-cell-id="58"><path fill="none" d="M1025 727h65v-30.88" pointer-events="stroke" style="stroke:light-dark(#000,#fff)"/><path d="m1090 689.12 3.5 7h-7Z" pointer-events="all" style="fill:light-dark(#000,#fff);stroke:light-dark(#000,#fff)"/></g><g stroke="#000" stroke-miterlimit="10" data-cell-id="59"><path fill="none" d="M1090 688v39h100V298h-100v21.88" pointer-events="stroke" style="stroke:light-dark(#000,#fff)"/><path d="m1090 326.88-3.5-7h7Z" pointer-events="all" style="fill:light-dark(#000,#fff);stroke:light-dark(#000,#fff)"/></g><g stroke="#000" stroke-miterlimit="10" data-cell-id="62"><path fill="none" d="M255 37h86.88" pointer-events="stroke" style="stroke:light-dark(#000,#fff)"/><path d="m348.88 37-7 3.5v-7Z" pointer-events="all" style="fill:light-dark(#000,#fff);stroke:light-dark(#000,#fff)"/></g><g stroke="#000" stroke-miterlimit="10" data-cell-id="64"><path fill="none" d="M384.4 37H500v11.88" pointer-events="stroke" style="stroke:light-dark(#000,#fff)"/><path d="m500 55.88-3.5-7h7Z" pointer-events="all" style="fill:light-dark(#000,#fff);stroke:light-dark(#000,#fff)"/></g><g stroke="#000" stroke-miterlimit="10" data-cell-id="65"><path fill="none" d="M570 57V7H263.12" pointer-events="stroke" style="stroke:light-dark(#000,#fff)"/><path d="m256.12 7 7-3.5v7Z" pointer-events="all" style="fill:light-dark(#000,#fff);stroke:light-dark(#000,#fff)"/></g><g stroke="#000" stroke-miterlimit="10" data-cell-id="66"><path fill="none" d="M569.58 117v41.88" pointer-events="stroke" style="stroke:light-dark(#000,#fff)"/><path d="m569.58 165.88-3.5-7h7Z" pointer-events="all" style="fill:light-dark(#000,#fff);stroke:light-dark(#000,#fff)"/></g><g stroke="#000" stroke-miterlimit="10" data-cell-id="68"><path fill="none" d="M500 117v110h70v-11.88" pointer-events="stroke" style="stroke:light-dark(#000,#fff)"/><path d="m570 208.12 3.5 7h-7Z" pointer-events="all" style="fill:light-dark(#000,#fff);stroke:light-dark(#000,#fff)"/></g><g stroke="#000" stroke-miterlimit="10" data-cell-id="70"><path fill="none" d="M420 239.5V186h121.88" pointer-events="stroke" style="stroke:light-dark(#000,#fff)"/><path d="m548.88 186-7 3.5v-7Z" pointer-events="all" style="fill:light-dark(#000,#fff);stroke:light-dark(#000,#fff)"/></g><g stroke="#000" stroke-miterlimit="10" data-cell-id="71"><path fill="none" d="M590 185.8h140v15.58" pointer-events="stroke" style="stroke:light-dark(#000,#fff)"/><path d="m730 208.38-3.5-7h7Z" pointer-events="all" style="fill:light-dark(#000,#fff);stroke:light-dark(#000,#fff)"/></g><g stroke="#000" stroke-miterlimit="10" data-cell-id="72"><path fill="none" d="M750 207V107h71.88" pointer-events="stroke" style="stroke:light-dark(#000,#fff)"/><path d="m828.88 107-7 3.5v-7Z" pointer-events="all" style="fill:light-dark(#000,#fff);stroke:light-dark(#000,#fff)"/></g><g stroke="#000" stroke-miterlimit="10" data-cell-id="73"><path fill="none" d="M910 106.58h61.88" pointer-events="stroke" style="stroke:light-dark(#000,#fff)"/><path d="m978.88 106.58-7 3.5v-7Z" pointer-events="all" style="fill:light-dark(#000,#fff);stroke:light-dark(#000,#fff)"/></g><g stroke="#000" stroke-miterlimit="10" data-cell-id="74"><path fill="none" d="M1025 187.25h-25V312H468.12" pointer-events="stroke" style="stroke:light-dark(#000,#fff)"/><path d="m461.12 312 7-3.5v7Z" pointer-events="all" style="fill:light-dark(#000,#fff);stroke:light-dark(#000,#fff)"/></g><g stroke="#000" stroke-miterlimit="10" data-cell-id="75"><path fill="none" d="M730 269.5V287h121.88" pointer-events="stroke" style="stroke:light-dark(#000,#fff)"/><path d="m858.88 287-7 3.5v-7Z" pointer-events="all" style="fill:light-dark(#000,#fff);stroke:light-dark(#000,#fff)"/></g><g stroke="#000" stroke-miterlimit="10" data-cell-id="76"><path fill="none" d="M960 267h31.88" pointer-events="stroke" style="stroke:light-dark(#000,#fff)"/><path d="m998.88 267-7 3.5v-7Z" pointer-events="all" style="fill:light-dark(#000,#fff);stroke:light-dark(#000,#fff)"/></g><g stroke="#000" stroke-miterlimit="10" data-cell-id="77"><path fill="none" d="M1090 328v-31h270v56.88" pointer-events="stroke" style="stroke:light-dark(#000,#fff)"/><path d="m1360 360.88-3.5-7h7Z" pointer-events="all" style="fill:light-dark(#000,#fff);stroke:light-dark(#000,#fff)"/></g><g stroke="#000" stroke-miterlimit="10" data-cell-id="78"><path fill="none" d="M1105 187.25h86.88" pointer-events="stroke" style="stroke:light-dark(#000,#fff)"/><path d="m1198.88 187.25-7 3.5v-7Z" pointer-events="all" style="fill:light-dark(#000,#fff);stroke:light-dark(#000,#fff)"/></g><g data-cell-id="79"><path fill="none" d="M155 134.75h100v20H155z" pointer-events="all"/><text x="204.5" y="147.25" font-family="&quot;Helvetica&quot;" font-size="12" style="fill:light-dark(#000,#fff)" text-anchor="middle">Cooling Tower</text></g><g data-cell-id="80"><path fill="none" d="M320 67h100v20H320z" pointer-events="all"/><text x="369.5" y="79.5" font-family="&quot;Helvetica&quot;" font-size="12" style="fill:light-dark(#000,#fff)" text-anchor="middle">Cooling Pump</text></g><g data-cell-id="81"><path fill="none" d="M520 229.5h100v20H520z" pointer-events="all"/><text x="569.5" y="242" font-family="&quot;Helvetica&quot;" font-size="12" style="fill:light-dark(#000,#fff)" text-anchor="middle">Heat Exchanger</text></g><g data-cell-id="82"><path fill="none" d="M680 229.5h100v20H680z" pointer-events="all"/><g font-family="&quot;Helvetica&quot;" font-size="12" style="fill:light-dark(#000,#fff)" text-anchor="middle"><text x="729.5" y="242">Cooled Fluid</text><text x="729.5" y="256">Tank</text></g></g><g data-cell-id="83"><path fill="none" d="M400 77h100v20H400z" pointer-events="all"/><g font-family="&quot;Helvetica&quot;" font-size="12" style="fill:light-dark(#000,#fff)" text-anchor="middle"><text x="449.5" y="89.5">Cooling Shutoff </text><text x="449.5" y="103.5">Valve 1</text></g></g><g data-cell-id="84"><path fill="none" d="M610 77h100v20H610z" pointer-events="all"/><g font-family="&quot;Helvetica&quot;" font-size="12" style="fill:light-dark(#000,#fff)" text-anchor="middle"><text x="659.5" y="89.5">Cooling Shutoff </text><text x="659.5" y="103.5">Valve 2</text></g></g><g data-cell-id="85"><path fill="none" d="M820 67h100v20H820z" pointer-events="all"/><text x="869.5" y="79.5" font-family="&quot;Helvetica&quot;" font-size="12" style="fill:light-dark(#000,#fff)" text-anchor="middle">Vacuum Pump</text></g><g data-cell-id="86"><path fill="none" d="M1190 247h100v20h-100z" pointer-events="all"/><text x="1239.5" y="259.5" font-family="&quot;Helvetica&quot;" font-size="12" style="fill:light-dark(#000,#fff)" text-anchor="middle">Water Tank</text></g><g data-cell-id="87"><path fill="none" d="M1310 488h100v20h-100z" pointer-events="all"/><text x="1359.5" y="500.5" font-family="&quot;Helvetica&quot;" font-size="12" style="fill:light-dark(#000,#fff)" text-anchor="middle">Oil</text></g><g data-cell-id="88"><path fill="none" d="M965 488h100v20H965z" pointer-events="all"/><text x="1014.5" y="500.5" font-family="&quot;Helvetica&quot;" font-size="12" style="fill:light-dark(#000,#fff)" text-anchor="middle">Reactor</text></g><g data-cell-id="89"><path fill="none" d="M1015 134.75h100v20h-100z" pointer-events="all"/><g font-family="&quot;Helvetica&quot;" font-size="12" style="fill:light-dark(#000,#fff)" text-anchor="middle"><text x="1064.5" y="147.25">Water Tank</text><text x="1064.5" y="161.25">Valve</text></g></g><g data-cell-id="90"><path fill="none" d="M850 229.75h100v20H850z" pointer-events="all"/><text x="899.5" y="242.25" font-family="&quot;Helvetica&quot;" font-size="12" style="fill:light-dark(#000,#fff)" text-anchor="middle">Water Pump</text></g><g data-cell-id="91"><path fill="none" d="M235 699.5h100v20H235z" pointer-events="all"/><text x="284.5" y="712" font-family="&quot;Helvetica&quot;" font-size="12" style="fill:light-dark(#000,#fff)" text-anchor="middle">Mud Valve</text></g><g data-cell-id="92"><path fill="none" d="M120 697h100v20H120z" pointer-events="all"/><text x="169.5" y="709.5" font-family="&quot;Helvetica&quot;" font-size="12" style="fill:light-dark(#000,#fff)" text-anchor="middle">Mud Pump</text></g><g data-cell-id="93"><path fill="none" d="M5 732h100v20H5z" pointer-events="all"/><text x="54.5" y="744.5" font-family="&quot;Helvetica&quot;" font-size="12" style="fill:light-dark(#000,#fff)" text-anchor="middle">Mud Tank</text></g><g data-cell-id="94"><path fill="none" d="M245 556.5h100v20H245z" pointer-events="all"/><text x="294.5" y="569" font-family="&quot;Helvetica&quot;" font-size="12" style="fill:light-dark(#000,#fff)" text-anchor="middle">Crude Oil Furnace</text></g><g data-cell-id="95"><path fill="none" d="M5 227h100v20H5z" pointer-events="all"/><text x="54.5" y="239.5" font-family="&quot;Helvetica&quot;" font-size="12" style="fill:light-dark(#000,#fff)" text-anchor="middle">Crude Oil Tank</text></g><g data-cell-id="96"><path fill="none" d="M105 391.25h100v20H105z" pointer-events="all"/><g font-family="&quot;Helvetica&quot;" font-size="12" style="fill:light-dark(#000,#fff)" text-anchor="middle"><text x="154.5" y="403.75">Crude Oil Tank</text><text x="154.5" y="417.75">Remote Valve</text></g></g><g data-cell-id="97"><path fill="none" d="M105 534.5h100v20H105z" pointer-events="all"/><g font-family="&quot;Helvetica&quot;" font-size="12" style="fill:light-dark(#000,#fff)" text-anchor="middle"><text x="154.5" y="547">Crude Oil To </text><text x="154.5" y="561">Furnace Valve</text></g></g><g data-cell-id="98"><path fill="none" d="M5 527h100v20H5z" pointer-events="all"/><g font-family="&quot;Helvetica&quot;" font-size="12" style="fill:light-dark(#000,#fff)" text-anchor="middle"><text x="54.5" y="539.5">Crude Oil Tank</text><text x="54.5" y="553.5">To Furnace Pump</text></g></g><g data-cell-id="99"><path fill="none" d="M545 752h100v20H545z" pointer-events="all"/><text x="594.5" y="764.5" font-family="&quot;Helvetica&quot;" font-size="12" style="fill:light-dark(#000,#fff)" text-anchor="middle">Boiler</text></g><g data-cell-id="100"><path fill="none" d="M310 292h100v20H310z" pointer-events="all"/><g font-family="&quot;Helvetica&quot;" font-size="12" style="fill:light-dark(#000,#fff)" text-anchor="middle"><text x="359.5" y="304.5">Separating</text><text x="359.5" y="318.5">Column</text></g></g><g data-cell-id="101"><path fill="none" d="M510 314.88h100v20H510z" pointer-events="all"/><g font-family="&quot;Helvetica&quot;" font-size="12" style="fill:light-dark(#000,#fff)" text-anchor="middle"><text x="559.5" y="327.38">Depressurizing</text><text x="559.5" y="341.38">Valve</text></g></g><g data-cell-id="102"><path fill="none" d="M510 387h100v24.25H510z" pointer-events="all"/><g font-family="&quot;Helvetica&quot;" font-size="12" style="fill:light-dark(#000,#fff)" text-anchor="middle"><text x="559.5" y="399.5">Separated Oil</text><text x="559.5" y="413.5">Valve 1</text></g></g><g data-cell-id="103"><path fill="none" d="M510 459.75h100V484H510z" pointer-events="all"/><g font-family="&quot;Helvetica&quot;" font-size="12" style="fill:light-dark(#000,#fff)" text-anchor="middle"><text x="559.5" y="472.25">Separated Oil</text><text x="559.5" y="486.25">Valve 2</text></g></g><g data-cell-id="104"><path fill="none" d="M699 547h100v20H699z" pointer-events="all"/><g font-family="&quot;Helvetica&quot;" font-size="12" style="fill:light-dark(#000,#fff)" text-anchor="middle"><text x="748.5" y="559.5">Oil</text><text x="748.5" y="573.5">Mixing Tank</text></g></g><g data-cell-id="105"><path fill="none" d="M830 752h100v20H830z" pointer-events="all"/><g font-family="&quot;Helvetica&quot;" font-size="12" style="fill:light-dark(#000,#fff)" text-anchor="middle"><text x="879.5" y="764.5">Crude Oil To</text><text x="879.5" y="778.5">Reactor Pump</text></g></g><g data-cell-id="106"><path fill="none" d="M937.5 752h100v20h-100z" pointer-events="all"/><g font-family="&quot;Helvetica&quot;" font-size="12" style="fill:light-dark(#000,#fff)" text-anchor="middle"><text x="987" y="764.5">Oil To </text><text x="987" y="778.5">Reactor Valve</text></g></g></g></g></svg>