<?xml version="1.0" encoding="UTF-8"?>
<svg version="1.1" xmlns="http://www.w3.org/2000/svg" width="41" height="41">
<path d="M0 0 C13.53 0 27.06 0 41 0 C41 13.53 41 27.06 41 41 C27.47 41 13.94 41 0 41 C0 27.47 0 13.94 0 0 Z " fill="#FDFDFD" transform="translate(0,0)"/>
<path d="M0 0 C13.53 0 27.06 0 41 0 C41 4.29 41 8.58 41 13 C39.02 13 37.04 13 35 13 C35.05220703 14.21236328 35.05220703 14.21236328 35.10546875 15.44921875 C35.13253906 16.51785156 35.15960938 17.58648438 35.1875 18.6875 C35.23970703 20.27111328 35.23970703 20.27111328 35.29296875 21.88671875 C34.96666615 25.35422768 33.99030125 27.18432448 32 30 C31.67 29.34 31.34 28.68 31 28 C31.66269061 26.33174841 32.33005782 24.66535272 33 23 C33.2759478 21.07096868 33.48449903 19.1310968 33.625 17.1875 C33.69976562 16.21167969 33.77453125 15.23585938 33.8515625 14.23046875 C33.90054688 13.49441406 33.94953125 12.75835937 34 12 C35.98 12 37.96 12 40 12 C40 8.37 40 4.74 40 1 C35.79067839 1.08706871 31.58345474 1.19398347 27.375 1.3125 C26.18519531 1.33505859 24.99539062 1.35761719 23.76953125 1.38085938 C15.43804895 1.53712294 15.43804895 1.53712294 8 5 C2.92315458 10.62569357 2.6400722 14.33936234 2.73046875 21.79296875 C3.08531076 26.01507435 3.95824437 28.03428826 7 31 C11.09238866 34.01155464 14.58453903 35.34277142 19.6875 34.875 C22.98932625 34.32088729 25.97172416 33.46529476 29 32 C30.00593243 33.1196986 31.0045849 34.2459412 32 35.375 C32.8353125 36.31472656 32.8353125 36.31472656 33.6875 37.2734375 C35 39 35 39 35 41 C23.45 41 11.9 41 0 41 C0 27.47 0 13.94 0 0 Z " fill="#393939" transform="translate(0,0)"/>
<path d="M0 0 C0.804375 0.33 1.60875 0.66 2.4375 1 C9.31133667 2.92949801 15.31198279 2.27677182 22 0 C23.32 1.98 24.64 3.96 26 6 C15.77 6 5.54 6 -5 6 C-3.35 4.02 -1.7 2.04 0 0 Z " fill="#FCFCFC" transform="translate(7,34)"/>
<path d="M0 0 C4.29 0 8.58 0 13 0 C10.82987456 1.62759408 8.65215544 3.2460364 6.4375 4.8125 C3.67647838 7.29033992 2.46004309 9.61884757 1 13 C0.67 13 0.34 13 0 13 C0 8.71 0 4.42 0 0 Z " fill="#FAFAFA" transform="translate(0,0)"/>
<path d="M0 0 C2 3 4 6 6 9 C4.43039961 12.66240092 3.06096354 13.93903646 0 17 C0 11.39 0 5.78 0 0 Z " fill="#FAFAFA" transform="translate(0,23)"/>
</svg>
