<?xml version="1.0" encoding="UTF-8"?>
<svg version="1.1" xmlns="http://www.w3.org/2000/svg" width="83" height="126">
<path d="M0 0 C27.39 0 54.78 0 83 0 C83 41.58 83 83.16 83 126 C55.61 126 28.22 126 0 126 C0 84.42 0 42.84 0 0 Z " fill="#FFFFFF" transform="translate(0,0)"/>
<path d="M0 0 C27.39 0 54.78 0 83 0 C83 41.58 83 83.16 83 126 C55.61 126 28.22 126 0 126 C0 84.42 0 42.84 0 0 Z M2 11 C2 36.74 2 62.48 2 89 C28.07 89 54.14 89 81 89 C81 63.26 81 37.52 81 11 C54.93 11 28.86 11 2 11 Z " fill="#FDFDFD" transform="translate(0,0)"/>
<path d="M0 0 C2.34499794 0.01850924 4.68960378 0.02050709 7.03466797 0.02026367 C8.54639011 0.02517225 10.05810961 0.03099766 11.56982422 0.0378418 C12.60586792 0.03951103 12.60586792 0.03951103 13.6628418 0.04121399 C17.64563618 0.08000227 21.41073165 0.44516123 25.31982422 1.20581055 C25.31982422 1.53581055 25.31982422 1.86581055 25.31982422 2.20581055 C23.84896362 2.18224487 23.84896362 2.18224487 22.34838867 2.15820312 C-6.51646268 1.04766102 -6.51646268 1.04766102 -34.68017578 6.20581055 C-10.59017578 6.20581055 13.49982422 6.20581055 38.31982422 6.20581055 C32.37982422 4.72081055 32.37982422 4.72081055 26.31982422 3.20581055 C26.31982422 2.87581055 26.31982422 2.54581055 26.31982422 2.20581055 C27.86247453 2.29422331 29.40399545 2.4024075 30.94482422 2.51831055 C32.23259766 2.60532227 32.23259766 2.60532227 33.54638672 2.6940918 C36.31982422 3.20581055 36.31982422 3.20581055 42.31982422 6.20581055 C42.31982422 44.81581055 42.31982422 83.42581055 42.31982422 123.20581055 C36.70982422 123.20581055 31.09982422 123.20581055 25.31982422 123.20581055 C25.31982422 113.96581055 25.31982422 104.72581055 25.31982422 95.20581055 C22.34982422 95.70081055 22.34982422 95.70081055 19.31982422 96.20581055 C16.63335378 96.29731629 13.97420288 96.34621789 11.28857422 96.33862305 C10.15736145 96.34005814 10.15736145 96.34005814 9.0032959 96.34152222 C7.41658443 96.34219953 5.82987013 96.34037671 4.24316406 96.33618164 C1.82724733 96.330827 -0.58848352 96.3361419 -3.00439453 96.3425293 C-4.55257202 96.34186844 -6.1007494 96.34058711 -7.64892578 96.33862305 C-8.36471802 96.34064728 -9.08051025 96.34267151 -9.81799316 96.34475708 C-13.96288039 96.32556892 -17.53487514 95.89669399 -21.68017578 95.20581055 C-21.68017578 104.44581055 -21.68017578 113.68581055 -21.68017578 123.20581055 C-27.29017578 123.20581055 -32.90017578 123.20581055 -38.68017578 123.20581055 C-38.74958821 108.13313469 -38.80314191 93.06048298 -38.8356123 77.98768139 C-38.85108883 70.98929088 -38.87219322 63.99100143 -38.90649414 56.99267578 C-38.93956084 50.24295468 -38.95701322 43.49336044 -38.96480751 36.74355507 C-38.97036432 34.16426246 -38.98121491 31.5849758 -38.99736595 29.00572777 C-39.01904143 25.40196526 -39.0221468 21.79864108 -39.02075195 18.19482422 C-39.03153778 17.12092438 -39.04232361 16.04702454 -39.05343628 14.94058228 C-39.04931229 13.96041641 -39.04518829 12.98025055 -39.04093933 11.97038269 C-39.04370471 11.11772418 -39.04647009 10.26506567 -39.04931927 9.38656902 C-38.59330516 6.69261215 -37.82139269 5.85434847 -35.68017578 4.20581055 C-24.43100143 -0.29052058 -11.92759351 -0.09743525 0 0 Z M-37.68017578 9.20581055 C-37.68017578 34.94581055 -37.68017578 60.68581055 -37.68017578 87.20581055 C-11.61017578 87.20581055 14.45982422 87.20581055 41.31982422 87.20581055 C41.31982422 61.46581055 41.31982422 35.72581055 41.31982422 9.20581055 C15.24982422 9.20581055 -10.82017578 9.20581055 -37.68017578 9.20581055 Z " fill="#222222" transform="translate(39.68017578125,1.794189453125)"/>
<path d="M0 0 C0.33 0 0.66 0 1 0 C1 10.56 1 21.12 1 32 C-3.95 32 -8.9 32 -14 32 C-14 22.76 -14 13.52 -14 4 C-9.71 3.01 -5.42 2.02 -1 1 C-0.67 0.67 -0.34 0.34 0 0 Z " fill="#FEFEFE" transform="translate(80,92)"/>
<path d="M0 0 C2.97 0.99 5.94 1.98 9 3 C11.97 3.495 11.97 3.495 15 4 C15 13.24 15 22.48 15 32 C10.05 32 5.1 32 0 32 C0 21.44 0 10.88 0 0 Z " fill="#FEFEFE" transform="translate(2,92)"/>
<path d="M0 0 C26.07 0 52.14 0 79 0 C78 2 78 2 75.70703125 2.81640625 C74.75183594 3.06261719 73.79664062 3.30882813 72.8125 3.5625 C71.87019531 3.81128906 70.92789063 4.06007813 69.95703125 4.31640625 C63.73293361 5.75526634 57.86250374 6.17188981 51.5 6.203125 C50.58726318 6.20882507 49.67452637 6.21452515 48.73413086 6.22039795 C46.80437365 6.22981882 44.87460056 6.23637031 42.94482422 6.24023438 C40.03713681 6.24987685 37.1301762 6.28090189 34.22265625 6.3125 C9.89615047 6.45116901 9.89615047 6.45116901 0 1 C0 0.67 0 0.34 0 0 Z " fill="#F2F2F2" transform="translate(2,90)"/>
<path d="M0 0 C2.34499794 0.01850924 4.68960378 0.02050709 7.03466797 0.02026367 C8.54639011 0.02517225 10.05810961 0.03099766 11.56982422 0.0378418 C12.60586792 0.03951103 12.60586792 0.03951103 13.6628418 0.04121399 C17.64563618 0.08000227 21.41073165 0.44516123 25.31982422 1.20581055 C25.31982422 1.53581055 25.31982422 1.86581055 25.31982422 2.20581055 C23.84896362 2.18224487 23.84896362 2.18224487 22.34838867 2.15820312 C-6.51646268 1.04766102 -6.51646268 1.04766102 -34.68017578 6.20581055 C-10.59017578 6.20581055 13.49982422 6.20581055 38.31982422 6.20581055 C32.37982422 4.72081055 32.37982422 4.72081055 26.31982422 3.20581055 C26.31982422 2.87581055 26.31982422 2.54581055 26.31982422 2.20581055 C32.30493793 2.5488309 37.07099728 3.02888898 42.31982422 6.20581055 C41.98982422 7.19581055 41.65982422 8.18581055 41.31982422 9.20581055 C15.24982422 9.20581055 -10.82017578 9.20581055 -37.68017578 9.20581055 C-36.68017578 5.20581055 -36.68017578 5.20581055 -33.99267578 3.58081055 C-23.29507722 -0.39965994 -11.25280213 -0.09192295 0 0 Z " fill="#6C6C6C" transform="translate(39.68017578125,1.794189453125)"/>
</svg>
