<?xml version="1.0" encoding="UTF-8"?>
<svg version="1.1" xmlns="http://www.w3.org/2000/svg" width="55" height="63">
<path d="M0 0 C18.15 0 36.3 0 55 0 C55 20.79 55 41.58 55 63 C36.85 63 18.7 63 0 63 C0 42.21 0 21.42 0 0 Z " fill="#FDFDFD" transform="translate(0,0)"/>
<path d="M0 0 C12.21 0 24.42 0 37 0 C35.39014698 4.02463255 33.74655956 7.28322784 31.5234375 10.95703125 C30.91935059 11.95968018 30.31526367 12.9623291 29.69287109 13.99536133 C28.5455249 15.88484497 28.5455249 15.88484497 27.375 17.8125 C24.94125 21.834375 22.5075 25.85625 20 30 C30.23 30 40.46 30 51 30 C51 25.38 51 20.76 51 16 C51.33 16 51.66 16 52 16 C52 25.57 52 35.14 52 45 C51.67 45 51.34 45 51 45 C51 40.38 51 35.76 51 31 C40.77 31 30.54 31 20 31 C21.2271875 32.99804688 22.454375 34.99609375 23.71875 37.0546875 C24.90129343 38.98681876 26.08231118 40.91987446 27.26318359 42.85302734 C28.08613453 44.1984043 28.91067379 45.54281103 29.73681641 46.88623047 C30.92246448 48.8148657 32.10239927 50.74689207 33.28125 52.6796875 C33.65310425 53.28183075 34.0249585 53.883974 34.40808105 54.50436401 C37 58.77225659 37 58.77225659 37 61 C24.79 61 12.58 61 0 61 C2.04847705 55.87880736 4.56020619 51.54919568 7.4375 46.875 C8.17323242 45.65876953 8.17323242 45.65876953 8.92382812 44.41796875 C9.40142578 43.63808594 9.87902344 42.85820313 10.37109375 42.0546875 C10.80349365 41.34812012 11.23589355 40.64155273 11.68139648 39.91357422 C13 38 13 38 14.60180664 36.55908203 C16.58955988 34.34260007 16.90566728 32.97882954 17 30 C15.89397144 27.62578009 14.79207346 25.63248923 13.37890625 23.45703125 C13.00015854 22.84736008 12.62141083 22.2376889 12.23118591 21.60954285 C11.02196363 19.66822025 9.79335071 17.74016753 8.5625 15.8125 C7.33890078 13.87207378 6.11951222 11.92915242 4.90452576 9.98332214 C4.14801703 8.77435484 3.38584421 7.56891012 2.61756897 6.36738586 C0 2.22069903 0 2.22069903 0 0 Z " fill="#D6D6D6" transform="translate(1,1)"/>
<path d="M0 0 C4.1050322 1.50797101 5.48371035 3.9046321 7.671875 7.59375 C8.66767578 9.26244141 8.66767578 9.26244141 9.68359375 10.96484375 C10.02245605 11.54476074 10.36131836 12.12467773 10.71044922 12.72216797 C11.75007689 14.5001315 12.80521677 16.26811493 13.86328125 18.03515625 C19 26.71028009 19 26.71028009 19 29 C6.79 29 -5.42 29 -18 29 C-15.95152295 23.87880736 -13.43979381 19.54919568 -10.5625 14.875 C-10.07201172 14.06417969 -9.58152344 13.25335938 -9.07617188 12.41796875 C-8.59857422 11.63808594 -8.12097656 10.85820313 -7.62890625 10.0546875 C-6.9803064 8.99483643 -6.9803064 8.99483643 -6.31860352 7.91357422 C-5.02519806 6.03656775 -3.62153807 4.59199642 -2 3 C-1.34 2.01 -0.68 1.02 0 0 Z " fill="#D7D7D7" transform="translate(19,33)"/>
<path d="M0 0 C0.33 0 0.66 0 1 0 C1 9.57 1 19.14 1 29 C0.67 29 0.34 29 0 29 C0 24.38 0 19.76 0 15 C-10.23 15 -20.46 15 -31 15 C-31.33 15.66 -31.66 16.32 -32 17 C-32.66 17 -33.32 17 -34 17 C-34 15.35 -34 13.7 -34 12 C-33.01 12 -32.02 12 -31 12 C-31 12.66 -31 13.32 -31 14 C-20.77 14 -10.54 14 0 14 C0 9.38 0 4.76 0 0 Z " fill="#090909" transform="translate(52,17)"/>
</svg>
