<?xml version="1.0" encoding="UTF-8"?>
<svg version="1.1" xmlns="http://www.w3.org/2000/svg" width="83" height="48">
<path d="M0 0 C27.39 0 54.78 0 83 0 C83 15.84 83 31.68 83 48 C55.61 48 28.22 48 0 48 C0 32.16 0 16.32 0 0 Z " fill="#BFBFBF" transform="translate(0,0)"/>
<path d="M0 0 C27.39 0 54.78 0 83 0 C83 15.84 83 31.68 83 48 C82.34 47.67 81.68 47.34 81 47 C81.33 31.82 81.66 16.64 82 1 C73.94235985 5.67997305 73.94235985 5.67997305 65.90527344 10.39501953 C64.90012695 10.96849121 63.89498047 11.54196289 62.859375 12.1328125 C61.83295898 12.72980957 60.80654297 13.32680664 59.74902344 13.94189453 C57 15 57 15 54.79394531 14.28076172 C53.90594238 13.64678467 53.90594238 13.64678467 53 13 C47.51948597 9.52455208 42.32873092 8.99600869 36 10 C33.65338629 11.10790942 31.71627126 12.33504735 29.65625 13.90625 C28 15 28 15 25 15 C25.66 15.66 26.32 16.32 27 17 C26.67 17.66 26.34 18.32 26 19 C25.9047301 20.47668337 25.87014041 21.95775457 25.875 23.4375 C25.87242188 24.21996094 25.86984375 25.00242187 25.8671875 25.80859375 C25.91617452 28.17895347 25.91617452 28.17895347 27 31 C25.08770164 32.21523476 23.16984228 33.42171857 21.25 34.625 C20.18265625 35.29789063 19.1153125 35.97078125 18.015625 36.6640625 C12.81340816 39.69025479 7.38300286 42.30849857 2 45 C2 31.14 2 17.28 2 3 C2.99 3 3.98 3 5 3 C3.68 2.34 2.36 1.68 1 1 C1 15.85 1 30.7 1 46 C1.99 46.33 2.98 46.66 4 47 C2.02 47.495 2.02 47.495 0 48 C0 32.16 0 16.32 0 0 Z " fill="#FAFAFA" transform="translate(0,0)"/>
<path d="M0 0 C0 13.86 0 27.72 0 42 C-13.5 35.25 -13.5 35.25 -19.25 31.625 C-20.34828125 30.93664062 -21.4465625 30.24828125 -22.578125 29.5390625 C-23.37734375 29.03117187 -24.1765625 28.52328125 -25 28 C-24.505 26.515 -24.505 26.515 -24 25 C-23.90774789 23.50225982 -23.8699981 22.00057026 -23.875 20.5 C-23.87242188 19.7265625 -23.86984375 18.953125 -23.8671875 18.15625 C-23.91854187 15.81552983 -23.91854187 15.81552983 -25 13 C-21.21225306 10.82642556 -17.41917971 8.6623228 -13.625 6.5 C-12.54476562 5.87996094 -11.46453125 5.25992187 -10.3515625 4.62109375 C-9.3203125 4.03457031 -8.2890625 3.44804688 -7.2265625 2.84375 C-6.27346191 2.29912109 -5.32036133 1.75449219 -4.33837891 1.19335938 C-2 0 -2 0 0 0 Z " fill="#FDFDFD" transform="translate(81,3)"/>
<path d="M0 0 C2.9750398 2.68479202 4.31472233 4.49576829 5.5625 8.3125 C5.5625 13.04299534 5.18982929 15.95582815 2.25 19.6875 C-1.6645252 23.51098973 -4.3474535 24.61095873 -9.8125 24.6875 C-15.86461386 24.57452721 -18.93076101 22.73279971 -23.25 18.5625 C-24.9980873 15.25033459 -25.54466128 12.01313608 -25.4375 8.3125 C-23.73149042 3.09411777 -21.16106959 0.96950789 -16.4375 -1.6875 C-10.83692286 -3.55435905 -5.22985281 -2.56738229 0 0 Z " fill="#FCFCFC" transform="translate(51.4375,12.6875)"/>
</svg>
