<?xml version="1.0" encoding="UTF-8"?>
<svg version="1.1" xmlns="http://www.w3.org/2000/svg" width="101" height="109">
<path d="M0 0 C33.33 0 66.66 0 101 0 C101 35.97 101 71.94 101 109 C67.67 109 34.34 109 0 109 C0 73.03 0 37.06 0 0 Z " fill="#FDFDFD" transform="translate(0,0)"/>
<path d="M0 0 C3.3 0 6.6 0 10 0 C10 34.65 10 69.3 10 105 C12.97 105 15.94 105 19 105 C19 93.45 19 81.9 19 70 C39.79 70 60.58 70 82 70 C82 81.55 82 93.1 82 105 C84.97 105 87.94 105 91 105 C91 70.35 91 35.7 91 0 C94.3 0 97.6 0 101 0 C101 34.98 101 69.96 101 106 C67.67 106 34.34 106 0 106 C0 71.02 0 36.04 0 0 Z " fill="#FFFFFF" transform="translate(0,3)"/>
<path d="M0 0 C3.63 0 7.26 0 11 0 C11 23.1 11 46.2 11 70 C37.07 70 63.14 70 90 70 C90 46.9 90 23.8 90 0 C93.63 0 97.26 0 101 0 C101 0.33 101 0.66 101 1 C97.7 1 94.4 1 91 1 C91 35.65 91 70.3 91 106 C88.03 106 85.06 106 82 106 C82 94.45 82 82.9 82 71 C61.21 71 40.42 71 19 71 C19 82.55 19 94.1 19 106 C16.03 106 13.06 106 10 106 C10 71.35 10 36.7 10 1 C6.7 1 3.4 1 0 1 C0 0.67 0 0.34 0 0 Z " fill="#121212" transform="translate(0,2)"/>
<path d="M0 0 C2.31 0 4.62 0 7 0 C7 11.22 7 22.44 7 34 C4.69 34 2.38 34 0 34 C0 22.78 0 11.56 0 0 Z " fill="#FDFDFD" transform="translate(83,73)"/>
<path d="M0 0 C2.31 0 4.62 0 7 0 C7 11.22 7 22.44 7 34 C4.69 34 2.38 34 0 34 C0 22.78 0 11.56 0 0 Z " fill="#FDFDFD" transform="translate(11,73)"/>
</svg>
