<?xml version="1.0" encoding="UTF-8"?>
<!-- Do not edit this file with editors other than draw.io -->
<!DOCTYPE svg PUBLIC "-//W3C//DTD SVG 1.1//EN" "http://www.w3.org/Graphics/SVG/1.1/DTD/svg11.dtd">
<svg xmlns="http://www.w3.org/2000/svg" style="background: transparent; background-color: transparent; color-scheme: light dark;" xmlns:xlink="http://www.w3.org/1999/xlink" version="1.1" width="45px" height="45px" viewBox="-0.5 -0.5 45 45" content="&lt;mxfile host=&quot;Electron&quot; agent=&quot;Mozilla/5.0 (Windows NT 10.0; Win64; x64) AppleWebKit/537.36 (KHTML, like Gecko) draw.io/26.0.16 Chrome/132.0.6834.196 Electron/34.2.0 Safari/537.36&quot; version=&quot;26.0.16&quot; scale=&quot;1&quot; border=&quot;0&quot;&gt;&#10;  &lt;diagram name=&quot;Page-1&quot; id=&quot;R-CJiSVqOMvXR5UxqF2R&quot;&gt;&#10;    &lt;mxGraphModel dx=&quot;2924&quot; dy=&quot;1197&quot; grid=&quot;1&quot; gridSize=&quot;10&quot; guides=&quot;1&quot; tooltips=&quot;1&quot; connect=&quot;1&quot; arrows=&quot;1&quot; fold=&quot;1&quot; page=&quot;1&quot; pageScale=&quot;1&quot; pageWidth=&quot;850&quot; pageHeight=&quot;1100&quot; math=&quot;0&quot; shadow=&quot;0&quot;&gt;&#10;      &lt;root&gt;&#10;        &lt;mxCell id=&quot;0&quot; /&gt;&#10;        &lt;mxCell id=&quot;1&quot; parent=&quot;0&quot; /&gt;&#10;        &lt;mxCell id=&quot;2&quot; value=&quot;&quot; style=&quot;sketch=0;pointerEvents=1;shadow=0;dashed=0;html=1;strokeColor=none;fillColor=#505050;labelPosition=center;verticalLabelPosition=bottom;verticalAlign=top;outlineConnect=0;align=center;shape=mxgraph.office.concepts.clock;fontSize=16;&quot; vertex=&quot;1&quot; parent=&quot;1&quot;&gt;&#10;          &lt;mxGeometry x=&quot;-212&quot; y=&quot;152&quot; width=&quot;45&quot; height=&quot;45&quot; as=&quot;geometry&quot; /&gt;&#10;        &lt;/mxCell&gt;&#10;      &lt;/root&gt;&#10;    &lt;/mxGraphModel&gt;&#10;  &lt;/diagram&gt;&#10;&lt;/mxfile&gt;&#10;"><defs/><g><g data-cell-id="0"><g data-cell-id="1"><g data-cell-id="cR_lY2oHokVvpKbUiupl-1"><g><rect x="0" y="0" width="45" height="45" fill="none" stroke="none" pointer-events="all"/><path d="M 32.67 30.32 C 33.1 30.69 33.17 31.37 32.73 31.88 C 32.38 32.24 31.78 32.42 31.26 32.07 L 21.44 24.51 C 21.22 24.29 21.02 24.06 21.03 23.59 L 21.03 7.11 C 21.03 6.44 21.63 6 22.16 6 C 22.85 6 23.27 6.65 23.27 7.11 L 23.27 23.11 Z M 22.61 41.28 C 33.7 41.28 41.25 31.94 41.25 22.53 C 41.25 11.08 31.84 3.75 22.55 3.75 C 10.23 3.75 3.77 14.41 3.77 22 C 3.77 34.79 13.93 41.28 22.61 41.28 Z M 22.39 45 C 11.29 45 0.27 36.52 0 22.23 C 0 11.3 9.2 0 22.42 0 C 34.03 0 45 8.99 45 22.63 C 45 34.71 35.24 45 22.39 45 Z" fill="#505050" stroke="none" pointer-events="all" style="fill: rgb(80, 80, 80);"/></g></g></g></g></g></svg>