<?xml version="1.0" ?><!-- Uploaded to: SVG Repo, www.svgrepo.com, Generator: SVG Repo Mixer Tools -->
<svg fill="#000000" width="800px" height="800px" viewBox="0 0 32 32" xmlns="http://www.w3.org/2000/svg"><title/><path d="M8,24a4,4,0,0,0,4,4h8a4,4,0,0,0,4-4V7h.917A1.085,1.085,0,0,1,26,8.083V17a1,1,0,0,0,2,0V8.083A3.087,3.087,0,0,0,24.917,5H6a1,1,0,0,0-.819,1.573L8,10.6ZM7.919,7H22V24a2,2,0,0,1-2,2H12a2,2,0,0,1-2-2V22h2a1,1,0,0,0,0-2H10V18h2a1,1,0,0,0,0-2H10V14h2a1,1,0,0,0,0-2H10V10.29a1,1,0,0,0-.181-.573Z"/></svg>